HIERARCHY
ROOT Hips
{
	OFFSET -14.64140 90.27770 -84.91600
	CHANNELS 6 Xposition Yposition Zposition Zrotation Xrotation Yrotation
	JOINT Spine
	{
		OFFSET 0.00000 13.20850 -1.60436
		CHANNELS 3 Zrotation Xrotation Yrotation
		JOINT Spine1
		{
			OFFSET 0.00000 8.61716 0.00000
			CHANNELS 3 Zrotation Xrotation Yrotation
			JOINT Spine2
			{
				OFFSET 0.00000 8.61717 0.00000
				CHANNELS 3 Zrotation Xrotation Yrotation
				JOINT Spine3
				{
					OFFSET 0.00000 8.61717 0.00000
					CHANNELS 3 Zrotation Xrotation Yrotation
					JOINT Neck
					{
						OFFSET 0.00000 11.07920 1.10792
						CHANNELS 3 Zrotation Xrotation Yrotation
						JOINT Neck1
						{
							OFFSET 0.00000 7.08032 0.00000
							CHANNELS 3 Zrotation Xrotation Yrotation
							JOINT Head
							{
								OFFSET 0.00000 7.08031 0.00000
								CHANNELS 3 Zrotation Xrotation Yrotation
								End site
								{
									OFFSET 0.00000 0.00000 0.00000
								}
							}
						}
					}
					JOINT RightShoulder
					{
						OFFSET -0.01000 7.91373 5.19711
						CHANNELS 3 Zrotation Xrotation Yrotation
						JOINT RightArm
						{
							OFFSET -18.41580 0.00000 0.00000
							CHANNELS 3 Zrotation Xrotation Yrotation
							JOINT RightForeArm
							{
								OFFSET -29.11090 0.00000 0.00000
								CHANNELS 3 Zrotation Xrotation Yrotation
								JOINT RightHand
								{
									OFFSET -24.65040 0.00000 0.00000
									CHANNELS 3 Zrotation Xrotation Yrotation
									JOINT RightHandThumb1
									{
										OFFSET -5.35114 -0.85590 3.97906
										CHANNELS 3 Zrotation Xrotation Yrotation
										JOINT RightHandThumb2
										{
											OFFSET -4.52789 0.00000 0.00000
											CHANNELS 3 Zrotation Xrotation Yrotation
											JOINT RightHandThumb3
											{
												OFFSET -2.46976 0.00000 0.00000
												CHANNELS 3 Zrotation Xrotation Yrotation
												End site
												{
													OFFSET 0.00000 0.00000 0.00000
												}
											}
										}
									}
									JOINT RightHandIndex1
									{
										OFFSET -14.26970 0.00000 2.88139
										CHANNELS 3 Zrotation Xrotation Yrotation
										JOINT RightHandIndex2
										{
											OFFSET -5.48836 0.00000 0.00000
											CHANNELS 3 Zrotation Xrotation Yrotation
											JOINT RightHandIndex3
											{
												OFFSET -3.01859 0.00000 0.00000
												CHANNELS 3 Zrotation Xrotation Yrotation
												End site
												{
													OFFSET 0.00000 0.00000 0.00000
												}
											}
										}
									}
									JOINT RightHandMiddle1
									{
										OFFSET -14.26970 0.00000 -0.09147
										CHANNELS 3 Zrotation Xrotation Yrotation
										JOINT RightHandMiddle2
										{
											OFFSET -6.17441 0.00000 0.00000
											CHANNELS 3 Zrotation Xrotation Yrotation
											JOINT RightHandMiddle3
											{
												OFFSET -3.56743 0.00000 0.00000
												CHANNELS 3 Zrotation Xrotation Yrotation
												End site
												{
													OFFSET 0.00000 0.00000 0.00000
												}
											}
										}
									}
									JOINT RightHandRing1
									{
										OFFSET -12.69180 0.00000 -3.06433
										CHANNELS 3 Zrotation Xrotation Yrotation
										JOINT RightHandRing2
										{
											OFFSET -5.62556 0.00000 0.00000
											CHANNELS 3 Zrotation Xrotation Yrotation
											JOINT RightHandRing3
											{
												OFFSET -3.56744 0.00000 0.00000
												CHANNELS 3 Zrotation Xrotation Yrotation
												End site
												{
													OFFSET 0.00000 0.00000 0.00000
												}
											}
										}
									}
									JOINT RightHandPinky1
									{
										OFFSET -11.11390 0.00000 -6.03719
										CHANNELS 3 Zrotation Xrotation Yrotation
										JOINT RightHandPinky2
										{
											OFFSET -4.52789 0.00000 0.00000
											CHANNELS 3 Zrotation Xrotation Yrotation
											JOINT RightHandPinky3
											{
												OFFSET -2.46976 0.00000 0.00000
												CHANNELS 3 Zrotation Xrotation Yrotation
												End site
												{
													OFFSET 0.00000 0.00000 0.00000
												}
											}
										}
									}
								}
							}
						}
					}
					JOINT LeftShoulder
					{
						OFFSET 0.01000 7.91373 5.19711
						CHANNELS 3 Zrotation Xrotation Yrotation
						JOINT LeftArm
						{
							OFFSET 18.41580 0.00000 0.00000
							CHANNELS 3 Zrotation Xrotation Yrotation
							JOINT LeftForeArm
							{
								OFFSET 29.11090 0.00000 0.00000
								CHANNELS 3 Zrotation Xrotation Yrotation
								JOINT LeftHand
								{
									OFFSET 24.65040 0.00000 0.00000
									CHANNELS 3 Zrotation Xrotation Yrotation
									JOINT LeftHandThumb1
									{
										OFFSET 5.35114 -0.85590 3.97906
										CHANNELS 3 Zrotation Xrotation Yrotation
										JOINT LeftHandThumb2
										{
											OFFSET 4.52789 0.00000 0.00000
											CHANNELS 3 Zrotation Xrotation Yrotation
											JOINT LeftHandThumb3
											{
												OFFSET 2.46977 0.00000 0.00000
												CHANNELS 3 Zrotation Xrotation Yrotation
												End site
												{
													OFFSET 0.00000 0.00000 0.00000
												}
											}
										}
									}
									JOINT LeftHandIndex1
									{
										OFFSET 14.26970 0.00000 2.88139
										CHANNELS 3 Zrotation Xrotation Yrotation
										JOINT LeftHandIndex2
										{
											OFFSET 5.48836 0.00000 0.00000
											CHANNELS 3 Zrotation Xrotation Yrotation
											JOINT LeftHandIndex3
											{
												OFFSET 3.01859 0.00000 0.00000
												CHANNELS 3 Zrotation Xrotation Yrotation
												End site
												{
													OFFSET 0.00000 0.00000 0.00000
												}
											}
										}
									}
									JOINT LeftHandMiddle1
									{
										OFFSET 14.26970 0.00000 -0.09147
										CHANNELS 3 Zrotation Xrotation Yrotation
										JOINT LeftHandMiddle2
										{
											OFFSET 6.17440 0.00000 0.00000
											CHANNELS 3 Zrotation Xrotation Yrotation
											JOINT LeftHandMiddle3
											{
												OFFSET 3.56744 0.00000 0.00000
												CHANNELS 3 Zrotation Xrotation Yrotation
												End site
												{
													OFFSET 0.00000 0.00000 0.00000
												}
											}
										}
									}
									JOINT LeftHandRing1
									{
										OFFSET 12.69180 0.00000 -3.06433
										CHANNELS 3 Zrotation Xrotation Yrotation
										JOINT LeftHandRing2
										{
											OFFSET 5.62556 0.00000 0.00000
											CHANNELS 3 Zrotation Xrotation Yrotation
											JOINT LeftHandRing3
											{
												OFFSET 3.56744 0.00000 0.00000
												CHANNELS 3 Zrotation Xrotation Yrotation
												End site
												{
													OFFSET 0.00000 0.00000 0.00000
												}
											}
										}
									}
									JOINT LeftHandPinky1
									{
										OFFSET 11.11390 0.00000 -6.03719
										CHANNELS 3 Zrotation Xrotation Yrotation
										JOINT LeftHandPinky2
										{
											OFFSET 4.52789 0.00000 0.00000
											CHANNELS 3 Zrotation Xrotation Yrotation
											JOINT LeftHandPinky3
											{
												OFFSET 2.46976 0.00000 0.00000
												CHANNELS 3 Zrotation Xrotation Yrotation
												End site
												{
													OFFSET 0.00000 0.00000 0.00000
												}
											}
										}
									}
								}
							}
						}
					}
					JOINT pCube4
					{
						OFFSET 0.00000 10.91090 1.10792
						CHANNELS 3 Zrotation Xrotation Yrotation
						End site
						{
							OFFSET 0.00000 0.00000 0.00000
						}
					}
				}
			}
		}
	}
	JOINT RightUpLeg
	{
		OFFSET -9.98441 0.00000 0.00000
		CHANNELS 3 Zrotation Xrotation Yrotation
		JOINT RightLeg
		{
			OFFSET 0.00000 -42.11790 0.00000
			CHANNELS 3 Zrotation Xrotation Yrotation
			JOINT RightFoot
			{
				OFFSET 0.00000 -45.00020 -0.00001
				CHANNELS 3 Zrotation Xrotation Yrotation
				JOINT RightForeFoot
				{
					OFFSET 0.00000 -3.74820 0.00000
					CHANNELS 3 Zrotation Xrotation Yrotation
					JOINT RightToeBase
					{
						OFFSET 0.00000 0.06325 14.43120
						CHANNELS 3 Zrotation Xrotation Yrotation
						End site
						{
							OFFSET 0.00000 0.00000 0.00000
						}
					}
				}
			}
		}
	}
	JOINT LeftUpLeg
	{
		OFFSET 9.98441 0.00000 0.00000
		CHANNELS 3 Zrotation Xrotation Yrotation
		JOINT LeftLeg
		{
			OFFSET 0.00000 -42.11800 0.00000
			CHANNELS 3 Zrotation Xrotation Yrotation
			JOINT LeftFoot
			{
				OFFSET 0.00000 -45.00070 0.00000
				CHANNELS 3 Zrotation Xrotation Yrotation
				JOINT LeftForeFoot
				{
					OFFSET 0.00000 -3.74824 0.00000
					CHANNELS 3 Zrotation Xrotation Yrotation
					JOINT LeftToeBase
					{
						OFFSET 0.00000 0.06325 14.43110
						CHANNELS 3 Zrotation Xrotation Yrotation
						End site
						{
							OFFSET 0.00000 0.00000 0.00000
						}
					}
				}
			}
		}
	}
}
MOTION
Frames: 4
Frame Time: 0.050000
0.02581430140415586 -0.002710134800378872 -0.0021868474054356156 -0.027883273243608172 0.011222286338547402 0.004433610092719928 -2.3726191853553504 1.781607124939613 -0.8003453634343861 -0.9801164331650054 3.655274856614057 0.4242104233863695 -1.1495632152587727 -1.6343993619738553 -0.03285915401726268 -0.42278820365184155 0.04402495903994763 -0.7317107135542127 -0.1726754729298854 12.794808793683124 0.27414326753540147 -0.1852109344484296 0.14286906305622674 -2.1730313400020798 -0.19028138473432488 -14.595293609238087 -0.13073781280155128 -5.676941082832162 2.175438289003394 -13.187082542422235 61.82648962216908 0.38323274533822455 26.202782093104002 0.4705838679236489 -2.9615206665457063 99.27823394900078 9.800042687666073 -0.32125363550250596 -0.5828456243432265 4.524811493600347 -0.16562595742391387 -1.6179736041082893 0.018579699589996775 -0.02047182372152949 -56.20634961960875 0.02400731633350078 -0.0035453064821823616 -56.282349101483796 -38.728991379826084 -0.0041274366965942146 -0.04897184925980383 -0.032872821824066874 0.01173376863634001 0.03849913612521731 -0.017066622502485154 -0.03100240224838038 0.04843529089341267 -36.69543592052271 -0.011378033246448455 -0.0037155686466615497 -0.027024600287939002 0.020098066126602088 0.00041384331929846544 -0.010531305906963663 0.003932857806746041 -0.006102102418455124 -19.80463337937484 0.036873988923949386 -0.03034392292617814 -0.009487290602465972 0.03555102223279758 -0.030502434027159145 0.04503291364823792 0.03811575082002316 -0.03627043519495289 24.02924035463594 0.04756537707297521 0.041648871662091316 28.89709659520172 -0.00843482836543053 -0.034962893333418045 28.887720857509144 -0.011581352940561614 -0.013906514154965617 6.189765647375797 1.5274218260937193 12.457301931797874 -63.787466120013804 13.66177054577395 -19.544849866127972 -3.662002587601006 -7.846496244388492 -85.642092100479 -3.5423743724105767 1.6781447020736762 -2.9745071598147583 -0.4763816967507794 0.05025808080370616 -8.075946030233924 -0.01100758362015723 0.0063125645718981995 44.5696057270737 -0.007599713554216488 -0.03506883366129144 44.576888006337526 12.433548890284706 -0.003574193827798654 -0.009575445743782232 -0.019392708058348203 -0.030064771874404553 -0.025500246629952986 -0.005350913264635759 0.002885278729809835 -0.0395315748069866 11.081139732585772 -0.024602747929677624 -0.02037087456416559 0.043933674700568554 0.003761193755918809 -0.0021265320707838493 0.024837874823187125 0.022319603404347292 -0.02903106511904645 4.792684529819129 0.04252126211119204 -0.003407516876245311 0.014266547848963272 -0.015717815087844932 0.046773554584060566 0.04453008392965292 0.04888638173412928 0.020691670835932565 -5.587145741433718 0.045478720405726085 -0.011447833757229497 -6.671534008719592 0.03531993882820106 0.03542593623360761 -6.726196664204512 0.02671215316359538 0.013253391685329451 -0.030722213499080595 -0.005186727008771282 -0.013056279030246695 8.066146593599402 3.5149389120569388 -19.186024002841517 -0.00278171179896544 10.361885959588607 0.01929812821708716 -5.6599846399661145 -15.656418846197814 3.176882467528155 0.03663300853282614 0.04959114485914164 -0.03124528297279759 0.030357096124841866 4.729602392180719 -0.015475600048392399 12.465373153851864 -8.266396968530275 6.888314974266657 0.016502816719839813 46.42231832983679 0.04183439057289898 -4.319700034951795 -14.742483626008271 -3.85965283283448 0.0334476077568954 -0.011133715212852337 0.02227761081124828 0.022275464639975085 -10.792734244203727 -0.039418395347505436 
0.03447902054573031 0.015295144193902278 0.0045892468805683725 0.03564155571287605 0.03098461101096571 -0.039305428409115245 -2.56837099950796 2.267108964749822 -0.7267050094051062 -0.9549861286731435 3.6101699985383835 0.44182274005342365 -1.145350729767969 -1.4471590927664504 -0.12344370651962537 -0.4019417353045389 0.08724712331222775 -0.7237299883924677 -0.2947497790244654 12.474577440480076 0.316582626401363 -0.2240911399918745 0.07203852716007655 -2.1429684511451375 -0.22547152425889322 -14.646135573848543 -0.0968083305576781 -4.954553355845478 1.9708777208492791 -12.908643872671105 61.91208320374656 0.7337903937057005 25.6263097138497 1.2776850878302606 -2.072737996183432 97.26387226874337 10.508450278051404 -0.32143110539822056 -1.0216540380582353 4.540894874912018 -0.13860615937817863 -1.5861737482059943 -0.025333831561194738 0.023218080100905408 -56.24969062651568 -0.012512979761975233 -0.04864600218333495 -56.251342230805584 -38.724486890747826 0.034860727206477496 0.03308086051923262 -0.027196780600319548 -0.0011053562705992505 -0.015064986313220929 -0.023522644414437723 0.04552779298023962 0.03826519252319224 -36.6592067357004 0.03284924472150034 0.036531986178007986 -0.0031130162834130284 0.03786366939450809 0.01207447577412238 0.03253507125426727 0.0016911176062801622 -0.041810085808354325 -19.743410464786656 -0.04270650462605671 -0.015802769534050107 0.008772392586992825 -0.047422906111517484 0.04939861666981661 -0.00010356043686605823 0.027491023460337657 0.012291731654581558 24.014965414480404 0.01963879387775105 -0.037086614001754906 28.894483741237135 -0.029667063909917354 -0.005728707992108515 28.851177147388682 0.027891239412110105 -0.022008042997261727 5.809606308959218 1.467875523651813 12.325264145662342 -62.87980229629137 13.47748454098253 -20.79614973994639 -3.8324113273093436 -6.7584249653357285 -86.69034184534837 -4.068075084773002 1.5799019467650566 -3.004940816398594 -0.5055822011470117 0.08949922251832965 -8.121506442474972 0.0028676874761285765 0.02039893852408354 44.595707729550185 0.027004328239007953 0.026315524412076224 44.60132198091869 12.456148024382939 0.01997035562116259 -0.04982456161656353 -0.0197965465930473 0.0398445112200359 -0.022256930055998218 -0.03639554094937649 0.04086311319904987 0.027605907705618028 11.138591058751095 -0.029523806753212534 0.004220394100649299 0.0472867794142647 0.008803782036818539 0.008258215153720622 -0.01242378927884259 0.04367517472864309 0.008225661700141626 4.727955529164847 -0.022570916753745573 0.021340399157813657 0.04501970220266464 -0.04295987918520543 0.016358146161607995 -0.0021958425187586905 0.006475023498596372 -0.0014249054681524122 -5.598052163957632 -0.0010333389018518937 0.026227818518479634 -6.678553358924711 0.0011635504296144165 0.007444745329941945 -6.69564749421033 -0.011714312016782092 0.0466083243670526 0.0443476745866905 -0.029940094362176064 -0.04679886003736974 7.995580074350109 3.460793214513456 -19.268161233792448 -0.01802324942995808 10.414782461709418 -0.016392921106511398 -5.604307354164602 -15.675314744833283 3.233847929392822 0.006324650025367837 0.018000502000439532 -0.018126479188016676 -0.02919639906375248 4.714835603457622 -0.02473988979244206 12.508707033145965 -8.25522953941093 6.925214007182825 0.014162697017881965 46.392257172647206 0.05128611947738729 -4.321146727935407 -14.738483351898626 -3.82909601864434 -0.023862094556190244 0.01757424144679324 -0.04094789604996688 0.03923829841333959 -10.789902012381278 -0.019199922860156732 
0.001319191730209391 0.024786797481341546 0.044558472367457 0.027204646991758837 -0.002973798285491433 -0.02284929469500167 -2.844974829127571 2.9339123644743483 -0.7100706219551699 -0.9504816327486169 3.6519364778122583 0.4461255432506534 -1.134589022229272 -1.2337165637832497 -0.20486525103441816 -0.3215442458662356 0.16466162462649897 -0.7108243277545752 -0.32811851897236227 12.07106064389857 0.31719283449888414 -0.2850729026783813 -0.10363458402096111 -2.240663286000761 -0.2308569152800958 -14.728417893259698 -0.14893559558616287 -4.073810458155675 1.7658035056347712 -12.633176537347177 62.022697911569 1.95731183944359 24.89545313398588 1.7268331033571813 -1.1164995554010482 94.80285909506279 11.51274931604349 -0.3599721537246826 -1.6933703039623118 4.566813821547034 -0.1645638313669092 -1.6070771711685377 0.033824019618022866 0.005084332864383864 -56.26777753083555 0.00108486388505295 -0.03048732111509574 -56.22937071192375 -38.73365653394985 -0.035059303640432866 -0.04066368751344783 0.035528491794909106 -0.03168743349980654 0.018349633009602864 0.03659504903583694 -0.030899283701377747 0.014062336663497058 -36.64588158087855 -0.033241169036479765 -0.027624928674577925 0.02436133290583804 0.005372991551005559 0.02168434621008509 -0.04526211047188798 -0.025585053419051724 -0.024169999525790173 -19.721009581819903 -0.04420020489182439 0.007456392843828155 0.02224666457274635 0.03361111275606637 0.029117713939631695 0.045290487921149876 -0.009996074606891732 0.01073221972224159 24.07970227727005 0.00880609217250045 0.018362616718374306 28.837073119898943 0.043757844194741886 -0.038735265294464354 28.83820644674827 -0.002074702119509362 0.0008958713140748854 5.10508733089058 1.3774716417752721 12.137632947010363 -62.09213436239616 14.146450895255803 -21.382992366460066 -3.367951207230168 -6.079153478945037 -86.64445982592609 -4.847967935604309 1.4762319492221658 -2.8113345682674855 -0.44837898214985716 0.03970402249879185 -8.106826095845895 0.02841483856129824 0.011471582849396391 44.52649694222522 -0.022572032562229866 0.017602282845022528 44.53317273160309 12.478205643947346 -0.021375055816090595 0.04407757602518699 -0.008822282786047745 0.004431065003012014 -0.011062454511518868 0.001563689610390749 0.049230034387322805 -0.014137279385102139 11.089773544958375 -0.029969029505749926 -0.01012129003828409 -0.0064546513494214515 -0.02767782547552617 -0.021540411920448244 -0.00372046333478236 0.013290492067604768 0.031094047687673456 4.736789997150734 -0.008348468110544693 -0.02696875196845723 -0.03512129104447082 0.019693862288456987 0.03742285104881141 0.0014319930577842822 -0.02479994936521106 -0.023827257215612994 -5.5686717891057524 -0.005984156221452555 -0.015733952808006532 -6.731812738412627 0.0041098999023661455 0.012355255244301987 -6.685371089927612 -0.016528196861733176 -0.005728517613136844 -0.034962033628917984 0.0015677219642638062 -0.027761963853490324 8.089067337341838 3.4907039541683593 -19.23922248144142 -0.03793488332909101 10.380377341263165 -0.00452452467624306 -5.6219268448816075 -15.663729985225453 3.172860485126294 -0.03668957879119224 0.03244450658156471 -0.00814313500470706 0.0024651618875850996 4.700122851707781 0.0022269944429352045 12.472558897862584 -8.28564361738035 6.901470373460696 0.016591853100740885 46.39350124031902 0.007258622197320477 -4.283515954329637 -14.734650643926965 -3.8509622585327166 -0.041533227482835326 0.037150989970378585 -0.02962944529906862 -0.027178700909495385 -10.732807855138148 -0.006722695244606075 
-0.00784728691013365 -0.027136151399830468 -0.04887897659373777 0.017674973962449176 -0.007389753766709645 0.03612482057272611 -3.213112399547257 3.7240246126340746 -0.6234368750186382 -0.9727771741335497 3.66672145643767 0.4536534027948775 -1.151432500639647 -0.9731473064631767 -0.28967259588793537 -0.2245197673113821 0.2620406915060012 -0.7786805002957775 -0.40844567321994985 11.588058331114349 0.22391519412822186 -0.2965441868186568 -0.32924860725856603 -2.6246846794655507 -0.27528398981687047 -15.01604272775497 -0.11546514244597561 -2.9683021901723667 1.413953040948864 -12.311746840190969 61.84601301864692 3.383476966872584 24.573200740688048 1.8069191376193754 -0.16474724893094095 92.41446119683239 12.65007946502644 -0.43626847945978753 -2.5521266985224837 4.543809532897506 -0.1605642044162963 -1.5584568580188365 -0.03636175566570616 0.00606134010580628 -56.21887878411495 0.03256848055220818 -0.008354259734786144 -56.232657704225424 -38.73190432676315 -0.040630176621009796 0.0442536505376345 0.018323688000993123 0.015024125471188534 -0.02424334300844033 -0.015524716589704862 0.04852159758074465 0.002412283738336824 -36.707950002245646 0.010541145479098346 -0.025567084228438553 0.013029311083339488 0.021756592879301664 0.02123551506731849 -0.026553458716195275 -0.0018499083648756479 0.002606588778918778 -19.750860282175474 0.049960771302053994 0.016788611631458842 0.01869397484451821 -0.014391241755816036 -0.020986802871038147 -0.00539640415060371 -0.007424765731540316 0.021638159352291825 24.073610225041907 0.024904441374564663 0.02933858738362927 28.829902896021625 -0.012079428103966276 0.002167551250391317 28.882775115280978 0.023060340586224467 -0.03208950513884188 3.9381009159923774 1.1298061902884617 11.799628012627071 -60.90616522075439 15.072451457647668 -21.86544365777549 -2.458468883920205 -5.5717166333300545 -85.70689857315931 -5.784723162866557 1.4414822852701656 -2.4397338901356886 -0.50977755457595 0.10620743510647083 -8.111708336984323 0.012889270042648294 0.01021910865335513 44.5432699826393 0.004811346606875467 0.014069749983002922 44.52227765255375 12.443338198685524 0.014295941954509837 -0.03667538456369406 0.013426132782202428 0.011767873396814356 0.03871575925089562 -0.028241921706327746 0.04316786451340727 -0.0025971840043732307 11.139505888139253 0.0222788711853621 -0.016234314250640827 0.029154424609171614 0.001989876478736771 0.012918261401952872 -0.04592065183536378 -0.03810955233109195 -0.01431520416490663 4.78000427670262 -0.04728042486798282 0.008117396099171338 -0.006118104554504579 0.005190882558492388 0.018061081650486626 0.03809797579631703 0.021503986722608802 -0.021231212488671405 -5.556319064632021 -0.010521952273255267 -0.030693791440925773 -6.716454282717947 0.0370967886331919 -0.011905682379425376 -6.74074271204084 0.03956914914226383 -0.006156409349205333 0.009554231782320094 0.015126331940000208 0.03279078454512981 8.047067322055247 3.459891452029996 -19.2291784795677 0.005883255537601409 10.429683871030852 -0.03260648781652693 -5.611490802823156 -15.677022462719568 3.144448977869549 -0.0200022947102995 -0.007837759255386951 -0.006876097588829405 0.025815668896862966 4.7061954521773774 -0.014551216283890375 12.460522474764943 -8.278807717562035 6.868822742019547 0.007009104393695455 46.36656186855863 -0.020091634294980766 -4.342495051221302 -14.762092088935146 -3.856638141762186 -0.017884647362843186 -0.03177906254218516 0.007496584561380242 0.03706067216736847 -10.74244927153722 0.045798012568317524 
